<?xml version="1.0" standalone="no"?>
<!DOCTYPE svg PUBLIC "-//W3C//DTD SVG 20010904//EN"
 "http://www.w3.org/TR/2001/REC-SVG-20010904/DTD/svg10.dtd">
<svg version="1.0" xmlns="http://www.w3.org/2000/svg"
 width="5191.000000pt" height="846.000000pt" viewBox="0 0 5191.000000 846.000000"
 preserveAspectRatio="xMidYMid meet">

<g transform="translate(0.000000,846.000000) scale(0.100000,-0.100000)"
fill="#000000" stroke="none">
<path d="M12490 8439 c-538 -43 -1112 -170 -1766 -393 -276 -94 -349 -113
-503 -126 -225 -20 -400 8 -1101 180 -1155 283 -1403 320 -2119 320 -895 0
-1902 -40 -4171 -165 -646 -35 -1310 -72 -1475 -80 -303 -16 -476 -30 -1037
-81 -347 -32 -318 -21 -318 -121 l0 -53 693 0 c700 0 911 5 2577 60 1768 58
2068 66 3070 81 1353 20 1454 11 2615 -221 270 -54 536 -106 593 -116 56 -9
102 -21 102 -25 0 -18 -125 -172 -176 -217 -31 -27 -95 -73 -142 -102 -832
-516 -1420 -1017 -1978 -1685 -539 -646 -1021 -1475 -1253 -2158 -155 -456
-216 -807 -214 -1242 1 -375 41 -639 144 -950 232 -701 760 -1175 1454 -1307
105 -20 151 -23 375 -23 281 0 308 4 635 77 784 175 1597 508 2490 1018 302
173 569 336 943 578 289 186 351 216 457 220 106 5 162 -17 303 -117 228 -161
403 -218 635 -208 209 9 327 54 662 252 252 148 396 226 1050 570 292 153 591
311 665 350 74 40 136 71 138 70 1 -1 -24 -191 -57 -421 -102 -708 -111 -860
-60 -1004 31 -88 112 -171 189 -194 181 -54 397 33 794 318 77 56 200 145 271
196 130 94 1456 973 1460 968 2 -2 -26 -178 -61 -393 -142 -871 -157 -1022
-116 -1152 55 -173 162 -258 343 -270 93 -7 195 13 354 68 206 71 242 90 1720
927 1195 677 1479 842 2033 1180 238 145 435 263 436 261 2 -2 -46 -87 -108
-189 -62 -102 -160 -264 -218 -361 -172 -283 -261 -470 -319 -664 -26 -90 -36
-273 -20 -386 27 -187 99 -395 186 -535 172 -276 512 -380 870 -267 103 33
353 139 673 287 140 65 255 116 257 114 2 -2 14 -49 26 -103 49 -229 109 -320
225 -345 102 -22 243 25 551 182 619 315 1304 736 1933 1187 96 69 321 233
500 366 178 132 419 310 535 396 149 110 211 151 213 139 1 -8 -35 -209 -82
-445 -47 -237 -94 -493 -106 -570 -27 -179 -37 -453 -21 -566 53 -357 268
-619 581 -706 91 -25 338 -25 430 1 290 80 448 180 823 524 84 76 171 155 193
175 l42 37 6 -32 c3 -18 10 -76 16 -128 26 -226 32 -268 46 -324 52 -203 148
-253 342 -180 91 34 183 89 502 297 524 343 654 420 1345 809 384 216 1485
828 1490 828 2 0 3 -282 2 -628 -2 -658 2 -747 43 -909 71 -275 244 -423 498
-423 177 0 382 70 763 261 223 111 539 298 2774 1639 917 550 1221 727 1407
821 l238 119 -34 -92 c-19 -51 -68 -185 -109 -298 -41 -113 -161 -434 -265
-715 -286 -767 -478 -1321 -518 -1493 -45 -193 -1 -334 123 -392 139 -65 346
-65 603 1 384 99 824 283 1180 494 487 289 916 637 1458 1184 265 267 279 287
333 459 13 40 26 71 30 70 19 -7 139 -121 139 -132 0 -7 -171 -439 -380 -961
-210 -521 -380 -948 -378 -949 2 -1 26 -21 55 -45 l52 -42 108 21 c205 42 -27
-93 2353 1365 729 446 1375 842 1437 879 62 37 194 103 295 147 245 108 249
109 245 101 -3 -4 -30 -88 -62 -187 -31 -99 -142 -407 -245 -685 -207 -554
-293 -798 -365 -1024 -45 -142 -47 -154 -42 -230 11 -152 74 -281 157 -323
127 -63 242 -28 317 99 18 29 50 109 73 178 53 165 96 240 225 390 686 801
1461 1399 2326 1795 216 98 257 110 444 131 77 9 186 21 243 28 56 7 102 11
102 9 0 -2 -145 -299 -321 -661 -494 -1009 -670 -1390 -713 -1538 -53 -180
-69 -333 -42 -399 19 -46 80 -87 180 -124 128 -46 225 -63 402 -68 147 -5 168
-4 235 16 130 39 211 88 1014 609 568 369 1300 859 1327 888 14 16 54 69 87
118 l61 90 -37 38 c-20 21 -41 38 -45 38 -4 0 -524 -324 -1156 -720 -631 -395
-1155 -722 -1164 -725 -11 -4 -27 9 -52 46 l-38 51 58 142 c31 77 143 341 249
586 317 734 444 1047 545 1349 107 319 116 499 30 634 -34 54 -100 100 -180
125 -87 27 -283 22 -442 -11 -536 -112 -1102 -357 -1618 -700 -364 -242 -671
-496 -1100 -910 -113 -109 -225 -216 -250 -237 l-45 -38 -45 38 -44 37 137
315 c242 560 377 895 398 987 15 68 12 206 -6 260 -33 101 -120 136 -278 113
-106 -15 -125 -25 -707 -374 -1122 -673 -2082 -1268 -2945 -1825 -187 -120
-346 -223 -353 -227 -15 -9 -19 -26 52 265 31 124 82 316 115 427 89 297 284
874 358 1060 81 205 102 298 85 379 -22 107 -109 190 -241 233 -149 47 -216
-1 -296 -215 -64 -172 -80 -197 -222 -357 -921 -1037 -1740 -1710 -2658 -2184
-99 -51 -209 -102 -244 -114 -57 -19 -450 -85 -458 -76 -8 8 133 382 182 481
30 61 154 292 276 515 196 360 459 854 459 865 0 2 61 129 136 282 166 339
195 421 202 558 3 85 1 110 -18 164 -43 127 -136 232 -259 293 -53 27 -78 33
-152 36 -140 7 -261 -37 -507 -182 -59 -35 -244 -139 -412 -231 -703 -387
-1499 -835 -2820 -1588 -893 -509 -1042 -589 -1155 -623 -89 -26 -180 -24
-233 6 -116 65 -160 228 -169 621 -14 610 72 801 446 986 281 139 492 308 773
618 117 129 164 208 195 325 21 82 23 247 4 315 -29 98 -141 175 -320 222
-178 46 -359 29 -624 -58 -242 -79 -442 -196 -606 -354 -126 -121 -207 -232
-293 -400 -124 -244 -210 -358 -368 -489 -138 -115 -259 -191 -795 -499 -38
-22 -160 -82 -270 -133 -110 -50 -234 -111 -275 -134 -117 -67 -559 -343
-1098 -687 l-493 -314 -49 41 -49 41 31 82 c73 196 137 402 264 847 148 520
221 749 309 970 73 186 184 413 275 564 39 65 70 119 68 120 -6 5 -316 77
-378 88 -100 18 -564 14 -750 -6 -580 -62 -1094 -206 -1684 -471 -681 -304
-1392 -749 -2853 -1783 -670 -474 -870 -612 -917 -632 -23 -10 -101 -28 -175
-39 -74 -12 -146 -24 -159 -28 -23 -5 -24 -3 -19 19 4 14 18 101 32 194 14 93
35 207 46 254 26 111 192 502 1277 3000 750 1728 912 2104 907 2108 -10 10
-102 21 -180 21 -194 1 -339 -74 -445 -229 -21 -31 -250 -483 -509 -1005 -610
-1228 -617 -1241 -706 -1330 -38 -39 -89 -79 -113 -89 -40 -18 -49 -18 -160
-5 -168 20 -489 18 -625 -5 -228 -37 -479 -112 -711 -211 -400 -171 -1115
-576 -2685 -1522 -1086 -656 -1445 -870 -1513 -904 -60 -31 -414 -179 -427
-179 -3 0 -4 182 -2 404 6 739 -23 945 -158 1098 -115 130 -299 150 -555 61
-132 -46 -233 -98 -396 -203 -74 -48 -418 -261 -765 -475 -346 -213 -665 -410
-708 -437 l-79 -49 7 43 c4 24 29 169 56 323 63 369 86 529 99 710 21 302 88
464 262 631 99 95 143 125 593 399 1635 997 3994 2478 4230 2654 153 115 391
341 492 466 90 111 156 222 194 324 30 78 33 96 33 201 1 136 -18 194 -92 293
-121 158 -340 268 -725 362 -1051 258 -2027 70 -2912 -563 -586 -418 -1132
-999 -1590 -1692 -401 -606 -719 -1230 -1163 -2285 -149 -353 -184 -396 -475
-577 -794 -493 -1748 -1035 -1937 -1100 -89 -30 -104 -32 -230 -33 -126 0
-141 2 -222 31 -105 38 -230 120 -316 207 l-63 64 503 449 c277 247 598 532
713 634 311 273 402 359 529 499 393 433 655 878 825 1406 184 566 242 1153
185 1850 -21 257 -53 361 -158 519 -95 143 -222 247 -481 396 -451 260 -991
415 -1640 470 -140 11 -632 11 -785 -1z m8758 -344 c141 -19 372 -67 489 -101
419 -121 493 -371 215 -722 -84 -107 -285 -301 -402 -388 -193 -144 -4311
-2803 -4413 -2849 -29 -13 -96 -40 -149 -59 l-97 -35 16 42 c9 23 58 141 109
262 414 990 864 1755 1412 2405 137 162 542 567 702 702 301 254 592 456 805
559 219 106 447 172 690 198 123 13 485 5 623 -14z m-7028 -189 c222 -22 464
-61 580 -92 52 -14 142 -48 200 -76 171 -83 276 -207 309 -366 21 -99 7 -361
-24 -463 -5 -13 -28 -5 -133 47 -266 130 -524 206 -802 235 -139 14 -433 6
-575 -16 -215 -34 -486 -106 -661 -176 -64 -25 -98 -32 -177 -36 -109 -6 -170
3 -327 49 -58 17 -213 61 -344 99 -330 94 -1016 313 -1008 320 4 4 63 29 132
57 602 242 1209 383 1850 432 181 13 789 5 980 -14z m-3101 -722 c36 -9 140
-45 231 -79 148 -56 383 -135 997 -337 l193 -63 -63 -65 c-520 -537 -868
-1149 -992 -1747 -62 -296 -71 -667 -25 -967 73 -481 278 -996 598 -1503 l51
-82 -187 -119 c-965 -612 -1853 -1039 -2711 -1302 -312 -96 -671 -182 -881
-212 -142 -20 -625 -17 -756 5 -449 73 -780 360 -938 815 -56 160 -78 291 -83
492 -6 214 10 350 68 582 159 634 472 1250 979 1927 292 390 541 681 865 1010
476 484 890 825 1450 1196 496 328 700 434 900 465 79 12 222 4 304 -16z
m3259 -160 c145 -29 285 -114 403 -242 69 -75 193 -255 179 -260 -10 -4 -1502
229 -1509 235 -9 7 38 35 199 116 298 151 512 195 728 151z m-678 -585 c162
-16 428 -45 590 -64 162 -19 403 -47 534 -62 l239 -27 12 -31 c42 -98 44 -374
5 -559 -131 -622 -625 -1399 -1331 -2091 -359 -352 -732 -640 -1102 -849 -65
-37 -122 -64 -127 -61 -17 10 -110 172 -159 277 -228 481 -309 1125 -221 1748
83 591 305 1128 622 1506 129 153 194 200 320 229 131 29 181 28 618 -16z
m22161 -2115 l36 -6 7 -110 c4 -66 2 -124 -4 -148 -16 -58 -176 -235 -713
-790 l-189 -195 5 185 c6 196 23 302 73 463 86 270 248 492 425 582 l74 37
125 -6 c69 -3 141 -8 161 -12z m-4853 -325 c50 -24 62 -34 57 -47 -4 -9 -67
-201 -141 -427 -198 -609 -282 -834 -418 -1120 -213 -445 -452 -763 -799
-1063 -138 -119 -203 -166 -302 -218 -105 -56 -213 -84 -324 -84 -74 0 -95 4
-146 28 -128 61 -194 194 -214 429 -40 467 200 1064 646 1612 108 132 347 372
473 473 352 283 718 444 1015 447 81 1 96 -2 153 -30z m-5791 -150 l41 -72
-25 -81 c-57 -190 -206 -624 -266 -777 -251 -639 -538 -1115 -910 -1505 -190
-199 -209 -207 -676 -299 -73 -14 -134 -25 -135 -23 -2 2 -31 86 -65 187 -101
298 -107 348 -65 562 137 704 508 1295 1089 1732 135 102 272 172 411 212 103
29 521 132 544 134 10 1 32 -28 57 -70z"/>
</g>
</svg>
